<?xml version="1.0" encoding="utf-8" standalone="no"?>
<!DOCTYPE svg PUBLIC "-//W3C//DTD SVG 1.1//EN"
  "http://www.w3.org/Graphics/SVG/1.1/DTD/svg11.dtd">
<svg xmlns:xlink="http://www.w3.org/1999/xlink" width="460.8pt" height="345.6pt" viewBox="0 0 460.8 345.6" xmlns="http://www.w3.org/2000/svg" version="1.1">
 <metadata>
  <rdf:RDF xmlns:dc="http://purl.org/dc/elements/1.1/" xmlns:cc="http://creativecommons.org/ns#" xmlns:rdf="http://www.w3.org/1999/02/22-rdf-syntax-ns#">
   <cc:Work>
    <dc:type rdf:resource="http://purl.org/dc/dcmitype/StillImage"/>
    <dc:date>2023-01-27T13:55:49.195380</dc:date>
    <dc:format>image/svg+xml</dc:format>
    <dc:creator>
     <cc:Agent>
      <dc:title>Matplotlib v3.5.1, https://matplotlib.org/</dc:title>
     </cc:Agent>
    </dc:creator>
   </cc:Work>
  </rdf:RDF>
 </metadata>
 <defs>
  <style type="text/css">*{stroke-linejoin: round; stroke-linecap: butt}</style>
 </defs>
 <g id="figure_1">
  <g id="patch_1">
   <path d="M 0 345.6 
L 460.8 345.6 
L 460.8 0 
L 0 0 
z
" style="fill: #ffffff"/>
  </g>
  <g id="axes_1">
   <g id="patch_2">
    <path d="M 361.309935 172.8 
C 361.309935 172.8 361.309935 172.8 361.309935 172.8 
L 322.036955 172.8 
C 322.036955 172.8 322.036955 172.8 322.036955 172.8 
L 361.309935 172.8 
z
" style="fill: #ffd845; stroke: #ffffff; stroke-linejoin: miter"/>
   </g>
   <g id="patch_3">
    <path d="M 361.309935 172.8 
C 361.309935 155.782051 357.991502 138.926259 351.540807 123.178271 
C 345.090113 107.430283 335.630088 93.090211 323.691462 80.962566 
C 311.752836 68.83492 297.563124 59.150818 281.918402 52.453561 
C 266.27368 45.756303 249.472091 42.173521 232.456242 41.906215 
C 215.440393 41.638908 198.534556 44.692173 182.687188 50.894714 
C 166.83982 57.097254 152.352926 66.330868 140.039253 78.077529 
C 127.725579 89.82419 117.81979 103.860039 110.877623 119.397635 
C 103.935455 134.935231 100.089207 151.678472 99.554661 168.688023 
C 99.020114 185.697575 101.807457 202.649284 107.760313 218.592123 
C 113.713169 234.534961 122.718094 249.165103 134.269891 261.661765 
C 145.821688 274.158428 159.700213 284.28346 175.126849 291.468825 
C 190.553486 298.65419 207.234247 302.762955 224.233303 303.564609 
C 241.23236 304.366264 258.22576 301.84553 274.260135 296.143828 
C 290.294509 290.442125 305.06429 281.668111 317.740858 270.314028 
C 330.417426 258.959945 340.759204 245.24217 348.185993 229.930299 
C 355.612782 214.618428 359.98305 198.004263 361.051615 181.019895 
L 321.856131 178.553927 
C 321.108135 190.442984 318.048948 202.0729 312.850195 212.791209 
C 307.651443 223.509519 300.412199 233.111962 291.538601 241.05982 
C 282.665003 249.007678 272.326156 255.149487 261.102094 259.140679 
C 249.878032 263.131871 237.982652 264.896385 226.083312 264.335227 
C 214.183973 263.774068 202.50744 260.897933 191.708795 255.868177 
C 180.910149 250.838422 171.195181 243.7509 163.108924 235.003236 
C 155.022666 226.255572 148.719219 216.014472 144.552219 204.854486 
C 140.38522 193.694499 138.43408 181.828303 138.808262 169.921616 
C 139.182445 158.01493 141.874819 146.294662 146.734336 135.418345 
C 151.593853 124.542027 158.527906 114.716933 167.147477 106.49427 
C 175.767048 98.271608 185.907874 91.808078 197.001032 87.4663 
C 208.094189 83.124521 219.928275 80.987236 231.839369 81.17435 
C 243.750464 81.361464 255.511576 83.869412 266.462882 88.557493 
C 277.414187 93.245573 287.346985 100.024444 295.704023 108.513796 
C 304.061062 117.003148 310.683079 127.041198 315.198565 138.06479 
C 319.714052 149.088381 322.036955 160.887436 322.036955 172.8 
L 361.309935 172.8 
z
" style="fill: #710027; stroke: #ffffff; stroke-linejoin: miter"/>
   </g>
   <g id="patch_4">
    <path d="M 361.051615 181.019895 
C 361.051615 181.019895 361.051615 181.019895 361.051615 181.019895 
L 321.856131 178.553927 
C 321.856131 178.553927 321.856131 178.553927 321.856131 178.553927 
L 361.051615 181.019895 
z
" style="fill: #778500; stroke: #ffffff; stroke-linejoin: miter"/>
   </g>
   <g id="patch_5">
    <path d="M 361.051615 181.019895 
C 361.137695 179.651686 361.202278 178.28221 361.24534 176.911973 
C 361.288401 175.541735 361.309936 174.170906 361.309935 172.799992 
L 322.036955 172.799995 
C 322.036955 173.759634 322.021881 174.719215 321.991738 175.678381 
C 321.961595 176.637547 321.916387 177.59618 321.856131 178.553927 
L 361.051615 181.019895 
z
" style="fill: #018ead; stroke: #ffffff; stroke-linejoin: miter"/>
   </g>
   <g id="patch_6">
    <path d="M 361.309935 172.799992 
C 361.309935 172.799992 361.309935 172.799992 361.309935 172.799992 
L 322.036955 172.799995 
C 322.036955 172.799995 322.036955 172.799995 322.036955 172.799995 
L 361.309935 172.799992 
z
" style="fill: #c44cfd; stroke: #ffffff; stroke-linejoin: miter"/>
   </g>
   <g id="patch_7">
    <path d="M 322.036955 172.8 
C 322.036955 172.8 322.036955 172.8 322.036955 172.8 
L 282.763974 172.8 
C 282.763974 172.8 282.763974 172.8 282.763974 172.8 
L 322.036955 172.8 
z
" style="fill: #1f77b4; stroke: #ffffff; stroke-linejoin: miter"/>
   </g>
   <g id="patch_8">
    <path d="M 322.036955 172.8 
C 322.036955 170.880602 321.97665 168.961678 321.85613 167.046068 
C 321.73561 165.130458 321.554934 163.219107 321.31437 161.314844 
L 282.351069 166.237054 
C 282.488534 167.325204 282.591777 168.417405 282.660646 169.512039 
C 282.729514 170.606673 282.763974 171.703201 282.763974 172.8 
L 322.036955 172.8 
z
" style="fill: #aec7e8; stroke: #ffffff; stroke-linejoin: miter"/>
   </g>
   <g id="patch_9">
    <path d="M 321.31437 161.314844 
C 321.31437 161.314844 321.31437 161.314844 321.31437 161.314844 
L 282.351069 166.237054 
C 282.351069 166.237054 282.351069 166.237054 282.351069 166.237054 
L 321.31437 161.314844 
z
" style="fill: #ff7f0e; stroke: #ffffff; stroke-linejoin: miter"/>
   </g>
   <g id="patch_10">
    <path d="M 321.31437 161.314844 
C 321.31437 161.314844 321.31437 161.314844 321.31437 161.314844 
L 282.351069 166.237054 
C 282.351069 166.237054 282.351069 166.237054 282.351069 166.237054 
L 321.31437 161.314844 
z
" style="fill: #ffbb78; stroke: #ffffff; stroke-linejoin: miter"/>
   </g>
   <g id="patch_11">
    <path d="M 321.31437 161.314844 
C 321.31437 161.314844 321.31437 161.314844 321.31437 161.314844 
L 282.351069 166.237054 
C 282.351069 166.237054 282.351069 166.237054 282.351069 166.237054 
L 321.31437 161.314844 
z
" style="fill: #2ca02c; stroke: #ffffff; stroke-linejoin: miter"/>
   </g>
   <g id="patch_12">
    <path d="M 321.31437 161.314844 
C 321.31437 161.314844 321.31437 161.314844 321.31437 161.314844 
L 282.351069 166.237054 
C 282.351069 166.237054 282.351069 166.237054 282.351069 166.237054 
L 321.31437 161.314844 
z
" style="fill: #98df8a; stroke: #ffffff; stroke-linejoin: miter"/>
   </g>
   <g id="patch_13">
    <path d="M 321.31437 161.314844 
C 321.31437 161.314844 321.31437 161.314844 321.31437 161.314844 
L 282.351069 166.237054 
C 282.351069 166.237054 282.351069 166.237054 282.351069 166.237054 
L 321.31437 161.314844 
z
" style="fill: #d62728; stroke: #ffffff; stroke-linejoin: miter"/>
   </g>
   <g id="patch_14">
    <path d="M 321.31437 161.314844 
C 319.623802 147.932618 314.999187 135.087255 307.77164 123.698464 
C 300.544093 112.309673 290.890327 102.655907 279.501536 95.42836 
L 258.45802 128.587634 
C 264.965901 132.717661 270.482339 138.234099 274.612366 144.74198 
C 278.742392 151.24986 281.38503 158.590068 282.351069 166.237054 
L 321.31437 161.314844 
z
" style="fill: #ff9896; stroke: #ffffff; stroke-linejoin: miter"/>
   </g>
   <g id="patch_15">
    <path d="M 279.501536 95.42836 
C 279.501536 95.42836 279.501536 95.42836 279.501536 95.42836 
L 258.45802 128.587634 
C 258.45802 128.587634 258.45802 128.587634 258.45802 128.587634 
L 279.501536 95.42836 
z
" style="fill: #9467bd; stroke: #ffffff; stroke-linejoin: miter"/>
   </g>
   <g id="patch_16">
    <path d="M 279.501536 95.42836 
C 279.501536 95.42836 279.501536 95.42836 279.501536 95.42836 
L 258.45802 128.587634 
C 258.45802 128.587634 258.45802 128.587634 258.45802 128.587634 
L 279.501536 95.42836 
z
" style="fill: #c5b0d5; stroke: #ffffff; stroke-linejoin: miter"/>
   </g>
   <g id="patch_17">
    <path d="M 279.501536 95.42836 
C 279.501536 95.42836 279.501536 95.42836 279.501536 95.42836 
L 258.45802 128.587634 
C 258.45802 128.587634 258.45802 128.587634 258.45802 128.587634 
L 279.501536 95.42836 
z
" style="fill: #8c564b; stroke: #ffffff; stroke-linejoin: miter"/>
   </g>
   <g id="patch_18">
    <path d="M 279.501536 95.42836 
C 279.501536 95.42836 279.501536 95.42836 279.501536 95.42836 
L 258.45802 128.587634 
C 258.45802 128.587634 258.45802 128.587634 258.45802 128.587634 
L 279.501536 95.42836 
z
" style="fill: #c49c94; stroke: #ffffff; stroke-linejoin: miter"/>
   </g>
   <g id="patch_19">
    <path d="M 279.501536 95.42836 
C 279.501536 95.42836 279.501536 95.42836 279.501536 95.42836 
L 258.45802 128.587634 
C 258.45802 128.587634 258.45802 128.587634 258.45802 128.587634 
L 279.501536 95.42836 
z
" style="fill: #e377c2; stroke: #ffffff; stroke-linejoin: miter"/>
   </g>
   <g id="patch_20">
    <path d="M 279.501536 95.42836 
C 279.501536 95.42836 279.501536 95.42836 279.501536 95.42836 
L 258.45802 128.587634 
C 258.45802 128.587634 258.45802 128.587634 258.45802 128.587634 
L 279.501536 95.42836 
z
" style="fill: #f7b6d2; stroke: #ffffff; stroke-linejoin: miter"/>
   </g>
   <g id="patch_21">
    <path d="M 279.501536 95.42836 
C 278.691285 94.914159 277.873007 94.412718 277.047005 93.924222 
C 276.221003 93.435725 275.387378 92.960234 274.54644 92.497924 
L 255.626537 126.9131 
C 256.107073 127.177277 256.58343 127.448986 257.055432 127.728127 
C 257.527433 128.007267 257.99502 128.293805 258.45802 128.587634 
L 279.501536 95.42836 
z
" style="fill: #7f7f7f; stroke: #ffffff; stroke-linejoin: miter"/>
   </g>
   <g id="patch_22">
    <path d="M 274.54644 92.497924 
C 274.54644 92.497924 274.54644 92.497924 274.54644 92.497924 
L 255.626537 126.9131 
C 255.626537 126.9131 255.626537 126.9131 255.626537 126.9131 
L 274.54644 92.497924 
z
" style="fill: #c7c7c7; stroke: #ffffff; stroke-linejoin: miter"/>
   </g>
   <g id="patch_23">
    <path d="M 274.54644 92.497924 
C 274.54644 92.497924 274.54644 92.497924 274.54644 92.497924 
L 255.626537 126.9131 
C 255.626537 126.9131 255.626537 126.9131 255.626537 126.9131 
L 274.54644 92.497924 
z
" style="fill: #bcbd22; stroke: #ffffff; stroke-linejoin: miter"/>
   </g>
   <g id="patch_24">
    <path d="M 274.54644 92.497924 
C 274.54644 92.497924 274.54644 92.497924 274.54644 92.497924 
L 255.626537 126.9131 
C 255.626537 126.9131 255.626537 126.9131 255.626537 126.9131 
L 274.54644 92.497924 
z
" style="fill: #dbdb8d; stroke: #ffffff; stroke-linejoin: miter"/>
   </g>
   <g id="patch_25">
    <path d="M 274.54644 92.497924 
C 274.54644 92.497924 274.54644 92.497924 274.54644 92.497924 
L 255.626537 126.9131 
C 255.626537 126.9131 255.626537 126.9131 255.626537 126.9131 
L 274.54644 92.497924 
z
" style="fill: #17becf; stroke: #ffffff; stroke-linejoin: miter"/>
   </g>
   <g id="patch_26">
    <path d="M 274.54644 92.497924 
C 259.952385 84.474775 243.44356 80.579859 226.80235 81.233694 
C 210.161141 81.887529 194.008798 87.065705 180.089221 96.209158 
C 166.169644 105.352611 155.00248 118.119996 147.793398 133.132874 
C 140.584317 148.145752 137.602449 164.843661 139.169733 181.423799 
C 140.737017 198.003936 146.794944 213.847333 156.689466 227.243444 
C 166.583987 240.639556 179.945719 251.088278 195.332055 257.461507 
C 210.71839 263.834735 227.554923 265.894545 244.023888 263.418548 
C 260.492852 260.94255 275.979427 254.023178 288.811592 243.407488 
L 263.778053 213.147136 
C 256.445387 219.213245 247.595916 223.167171 238.185079 224.582027 
C 228.774242 225.996883 219.153366 224.819849 210.361174 221.178004 
C 201.568983 217.536159 193.933707 211.56546 188.279695 203.91054 
C 182.625683 196.255619 179.16401 187.202249 178.268419 177.727885 
C 177.372828 168.25352 179.076753 158.711858 183.196228 150.133071 
C 187.315703 141.554284 193.69694 134.258635 201.650984 129.033805 
C 209.605027 123.808975 218.834938 120.850016 228.3442 120.476397 
C 237.853463 120.102777 247.287077 122.328443 255.626537 126.9131 
L 274.54644 92.497924 
z
" style="fill: #9edae5; stroke: #ffffff; stroke-linejoin: miter"/>
   </g>
   <g id="patch_27">
    <path d="M 288.811592 243.407488 
C 298.457068 235.428057 306.365958 225.556149 312.049123 214.402309 
C 317.732289 203.24847 321.070102 191.047481 321.85613 178.553936 
L 282.660646 176.087964 
C 282.211487 183.227132 280.304165 190.199126 277.056642 196.572748 
C 273.809119 202.946371 269.289753 208.587461 263.778053 213.147136 
L 288.811592 243.407488 
z
" style="fill: #66c2a5; stroke: #ffffff; stroke-linejoin: miter"/>
   </g>
   <g id="patch_28">
    <path d="M 321.85613 178.553936 
C 321.85613 178.553936 321.85613 178.553936 321.85613 178.553936 
L 282.660646 176.087964 
C 282.660646 176.087964 282.660646 176.087964 282.660646 176.087964 
L 321.85613 178.553936 
z
" style="fill: #fc8d62; stroke: #ffffff; stroke-linejoin: miter"/>
   </g>
   <g id="patch_29">
    <path d="M 321.85613 178.553936 
C 321.916386 177.59619 321.961594 176.637557 321.991737 175.678391 
C 322.02188 174.719224 322.036955 173.759644 322.036955 172.800004 
L 282.763974 172.800002 
C 282.763974 173.348368 282.75536 173.8967 282.738136 174.444795 
C 282.720911 174.99289 282.695078 175.54068 282.660646 176.087964 
L 321.85613 178.553936 
z
" style="fill: #8da0cb; stroke: #ffffff; stroke-linejoin: miter"/>
   </g>
   <g id="patch_30">
    <path d="M 322.036955 172.800004 
C 322.036955 172.800004 322.036955 172.800004 322.036955 172.800004 
L 282.763974 172.800002 
C 282.763974 172.800002 282.763974 172.800002 282.763974 172.800002 
L 322.036955 172.800004 
z
" style="fill: #e78ac3; stroke: #ffffff; stroke-linejoin: miter"/>
   </g>
   <g id="patch_31">
    <path d="M 322.036955 172.800004 
C 322.036955 172.800004 322.036955 172.800004 322.036955 172.800004 
L 282.763974 172.800002 
C 282.763974 172.800002 282.763974 172.800002 282.763974 172.800002 
L 322.036955 172.800004 
z
" style="fill: #a6d854; stroke: #ffffff; stroke-linejoin: miter"/>
   </g>
   <g id="patch_32">
    <path d="M 322.036955 172.800004 
C 322.036955 172.800004 322.036955 172.800004 322.036955 172.800004 
L 282.763974 172.800002 
C 282.763974 172.800002 282.763974 172.800002 282.763974 172.800002 
L 322.036955 172.800004 
z
" style="fill: #ffd92f; stroke: #ffffff; stroke-linejoin: miter"/>
   </g>
   <g id="matplotlib.axis_1"/>
   <g id="matplotlib.axis_2"/>
   <g id="text_1">
    <text style="font: 10px 'sans-serif'; text-anchor: end" x="93.012394" y="171.067581" transform="rotate(-0, 93.012394, 171.067581)">AMR</text>
   </g>
   <g id="text_2">
    <text style="font: 10px 'sans-serif'; text-anchor: end" x="175.66184" y="180.559435" transform="rotate(-0, 175.66184, 180.559435)">MXL</text>
   </g>
   <g id="text_3">
    <text style="font: 10px 'sans-serif'; text-anchor: middle" x="230.4" y="175.385156" transform="rotate(-0, 230.4, 175.385156)">HIPP100</text>
   </g>
  </g>
 </g>
</svg>
